<mxfile host="app.diagrams.net" modified="2023-09-26T12:48:08.644Z" agent="Mozilla/5.0 (X11; Linux x86_64) AppleWebKit/537.36 (KHTML, like Gecko) Chrome/114.0.0.0 Safari/537.36" etag="Tdb170mDt3c1xsfWXxMT" version="21.8.2" type="github">
  <diagram name="Страница — 1" id="1kUVYKHjDo-soyyuPsgV">
    <mxGraphModel dx="1434" dy="857" grid="1" gridSize="10" guides="1" tooltips="1" connect="1" arrows="1" fold="1" page="1" pageScale="1" pageWidth="827" pageHeight="1169" math="0" shadow="0">
      <root>
        <mxCell id="0" />
        <mxCell id="1" parent="0" />
        <mxCell id="tOMEySmnnw_roIO_JoBW-7" style="edgeStyle=orthogonalEdgeStyle;curved=1;rounded=0;orthogonalLoop=1;jettySize=auto;html=1;entryX=0;entryY=0.5;entryDx=0;entryDy=0;fontSize=12;startSize=8;endSize=8;" edge="1" parent="1" source="tOMEySmnnw_roIO_JoBW-1" target="tOMEySmnnw_roIO_JoBW-3">
          <mxGeometry relative="1" as="geometry" />
        </mxCell>
        <mxCell id="tOMEySmnnw_roIO_JoBW-8" style="edgeStyle=orthogonalEdgeStyle;curved=1;rounded=0;orthogonalLoop=1;jettySize=auto;html=1;entryX=0;entryY=0.5;entryDx=0;entryDy=0;fontSize=12;startSize=8;endSize=8;" edge="1" parent="1" source="tOMEySmnnw_roIO_JoBW-1" target="tOMEySmnnw_roIO_JoBW-2">
          <mxGeometry relative="1" as="geometry" />
        </mxCell>
        <mxCell id="tOMEySmnnw_roIO_JoBW-43" style="edgeStyle=orthogonalEdgeStyle;rounded=0;orthogonalLoop=1;jettySize=auto;html=1;entryX=0;entryY=0.5;entryDx=0;entryDy=0;fontSize=12;startSize=8;endSize=8;curved=1;" edge="1" parent="1" source="tOMEySmnnw_roIO_JoBW-1" target="tOMEySmnnw_roIO_JoBW-42">
          <mxGeometry relative="1" as="geometry">
            <Array as="points">
              <mxPoint x="160" y="540" />
              <mxPoint x="160" y="660" />
            </Array>
          </mxGeometry>
        </mxCell>
        <mxCell id="tOMEySmnnw_roIO_JoBW-44" style="edgeStyle=orthogonalEdgeStyle;curved=1;rounded=0;orthogonalLoop=1;jettySize=auto;html=1;entryX=0;entryY=0.5;entryDx=0;entryDy=0;fontSize=12;startSize=8;endSize=8;" edge="1" parent="1" source="tOMEySmnnw_roIO_JoBW-1" target="tOMEySmnnw_roIO_JoBW-5">
          <mxGeometry relative="1" as="geometry" />
        </mxCell>
        <mxCell id="tOMEySmnnw_roIO_JoBW-45" style="edgeStyle=orthogonalEdgeStyle;curved=1;rounded=0;orthogonalLoop=1;jettySize=auto;html=1;entryX=0;entryY=0.5;entryDx=0;entryDy=0;fontSize=12;startSize=8;endSize=8;" edge="1" parent="1" source="tOMEySmnnw_roIO_JoBW-1" target="tOMEySmnnw_roIO_JoBW-4">
          <mxGeometry relative="1" as="geometry">
            <Array as="points">
              <mxPoint x="160" y="540" />
              <mxPoint x="160" y="420" />
            </Array>
          </mxGeometry>
        </mxCell>
        <mxCell id="tOMEySmnnw_roIO_JoBW-1" value="user" style="rounded=1;whiteSpace=wrap;html=1;" vertex="1" parent="1">
          <mxGeometry x="30" y="520" width="100" height="40" as="geometry" />
        </mxCell>
        <mxCell id="tOMEySmnnw_roIO_JoBW-2" value="password" style="rounded=1;whiteSpace=wrap;html=1;" vertex="1" parent="1">
          <mxGeometry x="220" y="520" width="100" height="40" as="geometry" />
        </mxCell>
        <mxCell id="tOMEySmnnw_roIO_JoBW-3" value="login" style="rounded=1;whiteSpace=wrap;html=1;" vertex="1" parent="1">
          <mxGeometry x="220" y="460" width="100" height="40" as="geometry" />
        </mxCell>
        <mxCell id="tOMEySmnnw_roIO_JoBW-4" value="email" style="rounded=1;whiteSpace=wrap;html=1;" vertex="1" parent="1">
          <mxGeometry x="220" y="400" width="100" height="40" as="geometry" />
        </mxCell>
        <mxCell id="tOMEySmnnw_roIO_JoBW-13" style="edgeStyle=orthogonalEdgeStyle;curved=1;rounded=0;orthogonalLoop=1;jettySize=auto;html=1;entryX=0;entryY=0.5;entryDx=0;entryDy=0;fontSize=12;startSize=8;endSize=8;" edge="1" parent="1" source="tOMEySmnnw_roIO_JoBW-5" target="tOMEySmnnw_roIO_JoBW-10">
          <mxGeometry relative="1" as="geometry" />
        </mxCell>
        <mxCell id="tOMEySmnnw_roIO_JoBW-5" value="data" style="rounded=1;whiteSpace=wrap;html=1;" vertex="1" parent="1">
          <mxGeometry x="220" y="580" width="100" height="40" as="geometry" />
        </mxCell>
        <mxCell id="tOMEySmnnw_roIO_JoBW-16" style="edgeStyle=orthogonalEdgeStyle;rounded=0;orthogonalLoop=1;jettySize=auto;html=1;entryX=0;entryY=0.5;entryDx=0;entryDy=0;fontSize=12;startSize=8;endSize=8;curved=1;" edge="1" parent="1" source="tOMEySmnnw_roIO_JoBW-10" target="tOMEySmnnw_roIO_JoBW-14">
          <mxGeometry relative="1" as="geometry">
            <Array as="points">
              <mxPoint x="480" y="510" />
              <mxPoint x="480" y="385" />
            </Array>
          </mxGeometry>
        </mxCell>
        <mxCell id="tOMEySmnnw_roIO_JoBW-20" style="edgeStyle=orthogonalEdgeStyle;rounded=0;orthogonalLoop=1;jettySize=auto;html=1;entryX=0;entryY=0.5;entryDx=0;entryDy=0;fontSize=12;startSize=8;endSize=8;curved=1;" edge="1" parent="1" source="tOMEySmnnw_roIO_JoBW-10" target="tOMEySmnnw_roIO_JoBW-17">
          <mxGeometry relative="1" as="geometry" />
        </mxCell>
        <mxCell id="tOMEySmnnw_roIO_JoBW-21" style="edgeStyle=orthogonalEdgeStyle;rounded=0;orthogonalLoop=1;jettySize=auto;html=1;entryX=0;entryY=0.5;entryDx=0;entryDy=0;fontSize=12;startSize=8;endSize=8;curved=1;" edge="1" parent="1" source="tOMEySmnnw_roIO_JoBW-10" target="tOMEySmnnw_roIO_JoBW-18">
          <mxGeometry relative="1" as="geometry" />
        </mxCell>
        <mxCell id="tOMEySmnnw_roIO_JoBW-22" style="edgeStyle=orthogonalEdgeStyle;rounded=0;orthogonalLoop=1;jettySize=auto;html=1;entryX=0;entryY=0.5;entryDx=0;entryDy=0;fontSize=12;startSize=8;endSize=8;curved=1;" edge="1" parent="1" source="tOMEySmnnw_roIO_JoBW-10" target="tOMEySmnnw_roIO_JoBW-19">
          <mxGeometry relative="1" as="geometry" />
        </mxCell>
        <mxCell id="tOMEySmnnw_roIO_JoBW-24" style="edgeStyle=orthogonalEdgeStyle;curved=1;rounded=0;orthogonalLoop=1;jettySize=auto;html=1;entryX=0;entryY=0.5;entryDx=0;entryDy=0;fontSize=12;startSize=8;endSize=8;" edge="1" parent="1" source="tOMEySmnnw_roIO_JoBW-10" target="tOMEySmnnw_roIO_JoBW-23">
          <mxGeometry relative="1" as="geometry">
            <Array as="points">
              <mxPoint x="480" y="510" />
              <mxPoint x="480" y="645" />
            </Array>
          </mxGeometry>
        </mxCell>
        <mxCell id="tOMEySmnnw_roIO_JoBW-10" value="date" style="rounded=1;whiteSpace=wrap;html=1;" vertex="1" parent="1">
          <mxGeometry x="370" y="490" width="100" height="40" as="geometry" />
        </mxCell>
        <mxCell id="tOMEySmnnw_roIO_JoBW-38" style="edgeStyle=orthogonalEdgeStyle;curved=1;rounded=0;orthogonalLoop=1;jettySize=auto;html=1;entryX=0;entryY=0.5;entryDx=0;entryDy=0;fontSize=12;startSize=8;endSize=8;" edge="1" parent="1" source="tOMEySmnnw_roIO_JoBW-14" target="tOMEySmnnw_roIO_JoBW-36">
          <mxGeometry relative="1" as="geometry" />
        </mxCell>
        <mxCell id="tOMEySmnnw_roIO_JoBW-39" style="edgeStyle=orthogonalEdgeStyle;curved=1;rounded=0;orthogonalLoop=1;jettySize=auto;html=1;entryX=0;entryY=0.5;entryDx=0;entryDy=0;fontSize=12;startSize=8;endSize=8;" edge="1" parent="1" source="tOMEySmnnw_roIO_JoBW-14" target="tOMEySmnnw_roIO_JoBW-37">
          <mxGeometry relative="1" as="geometry" />
        </mxCell>
        <mxCell id="tOMEySmnnw_roIO_JoBW-14" value="task" style="rounded=1;whiteSpace=wrap;html=1;" vertex="1" parent="1">
          <mxGeometry x="554" y="365" width="100" height="40" as="geometry" />
        </mxCell>
        <mxCell id="tOMEySmnnw_roIO_JoBW-17" value="timeOn" style="rounded=1;whiteSpace=wrap;html=1;" vertex="1" parent="1">
          <mxGeometry x="554" y="425" width="100" height="40" as="geometry" />
        </mxCell>
        <mxCell id="tOMEySmnnw_roIO_JoBW-18" value="timeTo" style="rounded=1;whiteSpace=wrap;html=1;" vertex="1" parent="1">
          <mxGeometry x="554" y="490" width="100" height="40" as="geometry" />
        </mxCell>
        <mxCell id="tOMEySmnnw_roIO_JoBW-33" style="edgeStyle=orthogonalEdgeStyle;curved=1;rounded=0;orthogonalLoop=1;jettySize=auto;html=1;entryX=0;entryY=0.5;entryDx=0;entryDy=0;fontSize=12;startSize=8;endSize=8;" edge="1" parent="1" source="tOMEySmnnw_roIO_JoBW-19" target="tOMEySmnnw_roIO_JoBW-30">
          <mxGeometry relative="1" as="geometry" />
        </mxCell>
        <mxCell id="tOMEySmnnw_roIO_JoBW-34" style="edgeStyle=none;curved=1;rounded=0;orthogonalLoop=1;jettySize=auto;html=1;fontSize=12;startSize=8;endSize=8;" edge="1" parent="1" source="tOMEySmnnw_roIO_JoBW-19" target="tOMEySmnnw_roIO_JoBW-31">
          <mxGeometry relative="1" as="geometry" />
        </mxCell>
        <mxCell id="tOMEySmnnw_roIO_JoBW-35" style="edgeStyle=orthogonalEdgeStyle;curved=1;rounded=0;orthogonalLoop=1;jettySize=auto;html=1;entryX=0;entryY=0.5;entryDx=0;entryDy=0;fontSize=12;startSize=8;endSize=8;" edge="1" parent="1" source="tOMEySmnnw_roIO_JoBW-19" target="tOMEySmnnw_roIO_JoBW-32">
          <mxGeometry relative="1" as="geometry" />
        </mxCell>
        <mxCell id="tOMEySmnnw_roIO_JoBW-19" value="dayData" style="rounded=1;whiteSpace=wrap;html=1;" vertex="1" parent="1">
          <mxGeometry x="554" y="555" width="100" height="40" as="geometry" />
        </mxCell>
        <mxCell id="tOMEySmnnw_roIO_JoBW-23" value="color" style="rounded=1;whiteSpace=wrap;html=1;" vertex="1" parent="1">
          <mxGeometry x="554" y="625" width="100" height="40" as="geometry" />
        </mxCell>
        <mxCell id="tOMEySmnnw_roIO_JoBW-30" value="day" style="rounded=1;whiteSpace=wrap;html=1;" vertex="1" parent="1">
          <mxGeometry x="700" y="504" width="100" height="40" as="geometry" />
        </mxCell>
        <mxCell id="tOMEySmnnw_roIO_JoBW-31" value="month" style="rounded=1;whiteSpace=wrap;html=1;" vertex="1" parent="1">
          <mxGeometry x="700" y="554" width="100" height="40" as="geometry" />
        </mxCell>
        <mxCell id="tOMEySmnnw_roIO_JoBW-32" value="year" style="rounded=1;whiteSpace=wrap;html=1;" vertex="1" parent="1">
          <mxGeometry x="700" y="606" width="100" height="40" as="geometry" />
        </mxCell>
        <mxCell id="tOMEySmnnw_roIO_JoBW-36" value="Text" style="rounded=1;whiteSpace=wrap;html=1;" vertex="1" parent="1">
          <mxGeometry x="700" y="340" width="100" height="40" as="geometry" />
        </mxCell>
        <mxCell id="tOMEySmnnw_roIO_JoBW-37" value="Title" style="rounded=1;whiteSpace=wrap;html=1;" vertex="1" parent="1">
          <mxGeometry x="700" y="400" width="100" height="40" as="geometry" />
        </mxCell>
        <mxCell id="tOMEySmnnw_roIO_JoBW-41" value="TODO?????" style="rounded=1;whiteSpace=wrap;html=1;" vertex="1" parent="1">
          <mxGeometry x="370" y="300" width="100" height="40" as="geometry" />
        </mxCell>
        <mxCell id="tOMEySmnnw_roIO_JoBW-42" value="settings" style="rounded=1;whiteSpace=wrap;html=1;" vertex="1" parent="1">
          <mxGeometry x="220" y="640" width="100" height="40" as="geometry" />
        </mxCell>
      </root>
    </mxGraphModel>
  </diagram>
</mxfile>
